<svg width="401" height="83" viewBox="0 0 401 83" fill="none" xmlns="http://www.w3.org/2000/svg">
<rect width="400.419" height="83" rx="7.85135" fill="black"/>
<g clip-path="url(#clip0_182_318)">
<rect x="5.60815" y="5.60809" width="72.4568" height="71.7838" rx="35.8919" fill="#346A83"/>
<path d="M30.0624 56.7542L32.7798 48.6786L25.5338 43.2947L31.8738 36.1163L29.157 34.3217L32.7798 26.2461L40.9309 32.5272L45.4594 31.6299L53.1076 36.6813L53.6108 37.0137L48.1765 33.4245L55.422 28.0406L81.6875 43.2947L64.4792 77.3919L30.0624 56.7542Z" fill="#275A71"/>
<path d="M34.3522 41.5C32.4163 41.5601 30.8329 42.3292 29.602 43.8073H27.2C26.22 43.8073 25.3955 43.564 24.7262 43.0773C24.057 42.5906 23.7224 41.8785 23.7224 40.9412C23.7224 36.699 24.4633 34.578 25.9452 34.578C26.0169 34.578 26.2768 34.7042 26.7249 34.9565C27.1731 35.2089 27.7556 35.4643 28.4727 35.7226C29.1897 35.981 29.9007 36.1102 30.6058 36.1102C31.4065 36.1102 32.2012 35.972 32.9899 35.6956C32.9301 36.1402 32.9003 36.5368 32.9003 36.8853C32.9003 38.5557 33.3843 40.094 34.3522 41.5ZM53.5504 52.9826C53.5504 54.4247 53.1143 55.5633 52.2419 56.3985C51.3695 57.2337 50.2103 57.6513 48.7643 57.6513H33.0974C31.6515 57.6513 30.4923 57.2337 29.6199 56.3985C28.7475 55.5633 28.3113 54.4247 28.3113 52.9826C28.3113 52.3457 28.3323 51.7238 28.3741 51.1169C28.4159 50.51 28.4996 49.8551 28.625 49.152C28.7505 48.449 28.9089 47.7971 29.1001 47.1962C29.2913 46.5954 29.5482 46.0095 29.8709 45.4387C30.1935 44.8679 30.564 44.3811 30.9822 43.9786C31.4005 43.576 31.9114 43.2545 32.5149 43.0142C33.1184 42.7738 33.7846 42.6537 34.5136 42.6537C34.6331 42.6537 34.89 42.7828 35.2844 43.0412C35.6787 43.2996 36.1149 43.588 36.5929 43.9065C37.0709 44.2249 37.7103 44.5133 38.5109 44.7717C39.3116 45.0301 40.1183 45.1593 40.9309 45.1593C41.7435 45.1593 42.5502 45.0301 43.3508 44.7717C44.1515 44.5133 44.7908 44.2249 45.2689 43.9065C45.7469 43.588 46.1831 43.2996 46.5774 43.0412C46.9718 42.7828 47.2287 42.6537 47.3482 42.6537C48.0772 42.6537 48.7434 42.7738 49.3469 43.0142C49.9504 43.2545 50.4613 43.576 50.8795 43.9786C51.2978 44.3811 51.6683 44.8679 51.9909 45.4387C52.3136 46.0095 52.5705 46.5954 52.7617 47.1962C52.9529 47.7971 53.1113 48.449 53.2367 49.152C53.3622 49.8551 53.4459 50.51 53.4877 51.1169C53.5295 51.7238 53.5504 52.3457 53.5504 52.9826ZM35.1947 29.9633C35.1947 31.2371 34.7466 32.3247 33.8503 33.226C32.954 34.1273 31.8725 34.578 30.6058 34.578C29.3391 34.578 28.2576 34.1273 27.3613 33.226C26.465 32.3247 26.0169 31.2371 26.0169 29.9633C26.0169 28.6895 26.465 27.6019 27.3613 26.7006C28.2576 25.7993 29.3391 25.3486 30.6058 25.3486C31.8725 25.3486 32.954 25.7993 33.8503 26.7006C34.7466 27.6019 35.1947 28.6895 35.1947 29.9633ZM47.8143 36.8853C47.8143 38.7961 47.1421 40.4274 45.7977 41.7794C44.4533 43.1313 42.831 43.8073 40.9309 43.8073C39.0308 43.8073 37.4085 43.1313 36.0641 41.7794C34.7197 40.4274 34.0475 38.7961 34.0475 36.8853C34.0475 34.9745 34.7197 33.3432 36.0641 31.9912C37.4085 30.6393 39.0308 29.9633 40.9309 29.9633C42.831 29.9633 44.4533 30.6393 45.7977 31.9912C47.1421 33.3432 47.8143 34.9745 47.8143 36.8853ZM58.1394 40.9412C58.1394 41.8785 57.8048 42.5906 57.1355 43.0773C56.4663 43.564 55.6418 43.8073 54.6618 43.8073H52.2598C51.0289 42.3292 49.4455 41.5601 47.5096 41.5C48.4775 40.094 48.9615 38.5557 48.9615 36.8853C48.9615 36.5368 48.9316 36.1402 48.8719 35.6956C49.6606 35.972 50.4553 36.1102 51.256 36.1102C51.961 36.1102 52.6721 35.981 53.3891 35.7226C54.1061 35.4643 54.6887 35.2089 55.1368 34.9565C55.585 34.7042 55.8449 34.578 55.9166 34.578C57.3985 34.578 58.1394 36.699 58.1394 40.9412ZM55.8449 29.9633C55.8449 31.2371 55.3968 32.3247 54.5005 33.226C53.6042 34.1273 52.5227 34.578 51.256 34.578C49.9892 34.578 48.9077 34.1273 48.0115 33.226C47.1152 32.3247 46.6671 31.2371 46.6671 29.9633C46.6671 28.6895 47.1152 27.6019 48.0115 26.7006C48.9077 25.7993 49.9892 25.3486 51.256 25.3486C52.5227 25.3486 53.6042 25.7993 54.5005 26.7006C55.3968 27.6019 55.8449 28.6895 55.8449 29.9633Z" fill="white"/>
</g>
<g clip-path="url(#clip1_182_318)">
<rect x="84.7946" y="5.60809" width="72.4568" height="71.7838" rx="35.8919" fill="#346A83"/>
<path d="M106.532 57.6513L118.306 45.9865L134.609 29.8352L165.598 48.2517L149.1 81.8784L106.532 57.6513Z" fill="#275A71"/>
<path d="M135.514 48.0801C135.514 48.9263 135.175 49.7378 134.571 50.3361C133.967 50.9344 133.148 51.2705 132.294 51.2705H112.972L106.532 57.6513V32.1282C106.532 31.2821 106.871 30.4706 107.475 29.8722C108.079 29.2739 108.898 28.9378 109.752 28.9378H132.294C133.148 28.9378 133.967 29.2739 134.571 29.8722C135.175 30.4706 135.514 31.2821 135.514 32.1282V48.0801Z" fill="white"/>
</g>
<g clip-path="url(#clip2_182_318)">
<rect x="163.981" y="5.60809" width="72.4568" height="71.7838" rx="35.8919" fill="#D26600"/>
<path d="M199.993 62.9297L188.435 35.2189L207.343 23.4995L240.488 43.0615L224.04 74.6424L199.993 62.9297Z" fill="#B35700"/>
<path d="M200.21 21.7595C191.221 21.7595 183.907 29.1664 183.907 38.2594C183.848 51.5605 199.59 62.5894 200.21 63.0351C200.21 63.0351 216.571 51.5605 216.512 38.2697C216.512 29.1664 209.198 21.7595 200.21 21.7595ZM200.21 46.5249C195.706 46.5249 192.058 42.8307 192.058 38.2697C192.058 33.7088 195.706 30.0146 200.21 30.0146C204.713 30.0146 208.361 33.7088 208.361 38.2697C208.361 42.8307 204.713 46.5249 200.21 46.5249Z" fill="white"/>
</g>
<g clip-path="url(#clip3_182_318)">
<rect x="243.168" y="5.60809" width="72.4567" height="71.7838" rx="35.8919" fill="#346A83"/>
<path d="M265.808 55.0376L268.616 30.5231L293.431 28.3437L324.696 46.787L308.739 79.328L265.808 55.0376Z" fill="#275A71"/>
<path d="M291.435 26.9189H267.133C266.489 26.9189 265.87 27.175 265.415 27.6307C264.959 28.0865 264.703 28.7046 264.703 29.3491V53.6509C264.703 54.2955 264.959 54.9136 265.415 55.3693C265.87 55.8251 266.489 56.0811 267.133 56.0811H291.435C292.079 56.0811 292.698 55.8251 293.153 55.3693C293.609 54.9136 293.865 54.2955 293.865 53.6509V29.3491C293.865 28.7046 293.609 28.0865 293.153 27.6307C292.698 27.175 292.079 26.9189 291.435 26.9189ZM275.639 50.0057H269.563C269.241 50.0057 268.932 49.8776 268.704 49.6498C268.476 49.4219 268.348 49.1128 268.348 48.7906C268.348 48.4683 268.476 48.1592 268.704 47.9314C268.932 47.7035 269.241 47.5755 269.563 47.5755H275.639C275.961 47.5755 276.27 47.7035 276.498 47.9314C276.726 48.1592 276.854 48.4683 276.854 48.7906C276.854 49.1128 276.726 49.4219 276.498 49.6498C276.27 49.8776 275.961 50.0057 275.639 50.0057ZM268.348 41.5C268.348 41.1778 268.476 40.8687 268.704 40.6408C268.932 40.413 269.241 40.2849 269.563 40.2849H274.424C274.746 40.2849 275.055 40.413 275.283 40.6408C275.511 40.8687 275.639 41.1778 275.639 41.5C275.639 41.8223 275.511 42.1314 275.283 42.3592C275.055 42.5871 274.746 42.7151 274.424 42.7151H269.563C269.241 42.7151 268.932 42.5871 268.704 42.3592C268.476 42.1314 268.348 41.8223 268.348 41.5ZM284.416 50.2456C284.332 50.2879 284.239 50.3099 284.144 50.3099C284.05 50.3099 283.957 50.2879 283.872 50.2456C283.636 50.1272 278.069 47.2975 278.069 43.3227C278.069 42.6126 278.296 41.9211 278.715 41.3485C279.135 40.7758 279.726 40.3518 280.404 40.1378C281.081 39.9239 281.808 39.9312 282.481 40.1586C283.153 40.3861 283.736 40.8219 284.144 41.4028C284.553 40.8219 285.135 40.3861 285.808 40.1586C286.48 39.9312 287.208 39.9239 287.885 40.1378C288.562 40.3518 289.153 40.7758 289.573 41.3485C289.993 41.9211 290.219 42.6126 290.22 43.3227C290.22 47.2975 284.653 50.1272 284.416 50.2456ZM289.005 35.4246H269.563C269.241 35.4246 268.932 35.2966 268.704 35.0687C268.476 34.8408 268.348 34.5317 268.348 34.2095C268.348 33.8872 268.476 33.5782 268.704 33.3503C268.932 33.1224 269.241 32.9944 269.563 32.9944H289.005C289.327 32.9944 289.636 33.1224 289.864 33.3503C290.092 33.5782 290.22 33.8872 290.22 34.2095C290.22 34.5317 290.092 34.8408 289.864 35.0687C289.636 35.2966 289.327 35.4246 289.005 35.4246Z" fill="white"/>
</g>
<g clip-path="url(#clip4_182_318)">
<rect x="322.354" y="5.60809" width="72.4567" height="71.7838" rx="35.8919" fill="#346A83"/>
<path d="M342.28 59.446L372.168 48.6784L353.148 38.8081L364.016 25.3487L397.723 44.6625L379.414 78.2892L342.28 59.446Z" fill="#275A71"/>
<path d="M358.582 23.5541C356.258 23.5541 354.028 24.4576 352.385 26.0659C350.741 27.6742 349.817 29.8555 349.817 32.13C349.817 34.4044 350.741 36.5858 352.385 38.194C354.028 39.8023 356.258 40.7059 358.582 40.7059C360.907 40.7059 363.136 39.8023 364.78 38.194C366.424 36.5858 367.347 34.4044 367.347 32.13C367.347 29.8555 366.424 27.6742 364.78 26.0659C363.136 24.4576 360.907 23.5541 358.582 23.5541ZM349.233 45.2797C346.908 45.2797 344.679 46.1832 343.035 47.7915C341.392 49.3998 340.468 51.5811 340.468 53.8556V56.5724C340.468 58.2967 341.744 59.7649 343.483 60.0417C353.482 61.6402 363.682 61.6402 373.681 60.0417C374.522 59.9063 375.287 59.4833 375.839 58.848C376.391 58.2127 376.695 57.4063 376.697 56.5724V53.8556C376.697 51.5811 375.773 49.3998 374.129 47.7915C372.486 46.1832 370.256 45.2797 367.932 45.2797H367.137C366.701 45.2812 366.277 45.3468 365.865 45.4764L363.841 46.1235C360.424 47.2151 356.741 47.2151 353.323 46.1235L351.299 45.4764C350.889 45.3476 350.461 45.2813 350.03 45.2797H349.233Z" fill="white"/>
</g>
<defs>
<clipPath id="clip0_182_318">
<rect x="5.60815" y="5.60809" width="72.4568" height="71.7838" rx="35.8919" fill="white"/>
</clipPath>
<clipPath id="clip1_182_318">
<rect x="84.7946" y="5.60809" width="72.4568" height="71.7838" rx="35.8919" fill="white"/>
</clipPath>
<clipPath id="clip2_182_318">
<rect x="163.981" y="5.60809" width="72.4568" height="71.7838" rx="35.8919" fill="white"/>
</clipPath>
<clipPath id="clip3_182_318">
<rect x="243.168" y="5.60809" width="72.4567" height="71.7838" rx="35.8919" fill="white"/>
</clipPath>
<clipPath id="clip4_182_318">
<rect x="322.354" y="5.60809" width="72.4567" height="71.7838" rx="35.8919" fill="white"/>
</clipPath>
</defs>
</svg>
