<svg width="50" height="50" viewBox="0 0 50 50" fill="none" xmlns="http://www.w3.org/2000/svg">
<rect width="50" height="50" rx="12" fill="black"/>
<path d="M36.728 32.656C36.728 31.856 36.272 31.008 35.36 30.112C34.464 29.216 33.376 28.432 32.096 27.76C30.816 27.088 29.512 26.512 28.184 26.032C26.872 25.536 25.768 25.232 24.872 25.12C25.288 25.952 25.592 26.584 25.784 27.016C25.992 27.448 26.2 28.008 26.408 28.696C26.616 29.368 26.72 29.968 26.72 30.496C26.72 32.128 26.232 33.464 25.256 34.504C24.296 35.544 23.16 36.064 21.848 36.064C20.12 36.064 18.488 35.384 16.952 34.024C15.432 32.68 14.24 30.992 13.376 28.96C12.512 26.928 12.08 24.88 12.08 22.816C12.08 20.272 12.816 18.152 14.288 16.456C15.024 15.592 16.024 14.92 17.288 14.44C18.568 13.944 20.056 13.696 21.752 13.696C23.448 13.696 25.184 14.048 26.96 14.752C29.056 15.568 30.528 16.608 31.376 17.872C31.872 18.592 32.12 19.384 32.12 20.248C32.12 21.112 31.864 21.864 31.352 22.504C30.856 23.128 30.208 23.576 29.408 23.848C29.376 23.864 29.288 23.872 29.144 23.872C29.016 23.872 28.952 23.848 28.952 23.8C28.952 23.736 29.056 23.656 29.264 23.56C30.48 23.08 31.088 22.408 31.088 21.544C31.088 20.504 30.512 19.512 29.36 18.568C28.224 17.608 26.8 16.856 25.088 16.312C23.376 15.768 21.664 15.496 19.952 15.496C17.552 15.496 15.792 16.032 14.672 17.104C13.552 18.176 12.992 19.624 12.992 21.448C12.992 23.256 13.52 25.224 14.576 27.352C15.648 29.464 17 31.248 18.632 32.704C20.28 34.144 21.864 34.864 23.384 34.864C24.744 34.864 25.424 34.216 25.424 32.92C25.424 32.28 25.08 31.248 24.392 29.824C23.704 28.384 23.008 26.912 22.304 25.408C21.616 23.888 21.272 22.736 21.272 21.952C21.272 21.168 21.504 20.472 21.968 19.864C22.432 19.256 22.896 18.816 23.36 18.544L24.032 18.16C24.128 18.16 24.176 18.208 24.176 18.304C24.176 18.384 24.144 18.456 24.08 18.52C23.568 18.76 23.312 19.344 23.312 20.272C23.392 21.424 23.832 22.88 24.632 24.64C25.128 24.112 25.48 23.792 25.688 23.68C25.896 23.568 26.256 23.512 26.768 23.512C27.28 23.512 27.984 23.64 28.88 23.896C29.776 24.136 30.752 24.488 31.808 24.952C32.88 25.4 33.888 25.912 34.832 26.488C35.792 27.048 36.592 27.696 37.232 28.432C37.872 29.168 38.192 29.896 38.192 30.616C38.192 31.768 37.688 32.896 36.68 34C35.688 35.088 34.432 35.632 32.912 35.632C31.824 35.632 30.888 35.368 30.104 34.84C29.32 34.328 28.536 33.6 27.752 32.656C28.424 31.872 28.92 31.416 29.24 31.288C29.352 31.288 29.504 31.376 29.696 31.552L30.032 31.912C30.528 32.344 30.936 32.688 31.256 32.944C31.576 33.184 32.104 33.464 32.84 33.784C33.576 34.104 34.24 34.264 34.832 34.264C35.424 34.264 35.888 34.128 36.224 33.856C36.56 33.568 36.728 33.168 36.728 32.656Z" fill="white"/>
</svg>
